<?xml version="1.0" encoding="utf-8"?>
<svg viewBox="0 0 138 27" width="138px" height="27px" fill="none" xmlns="http://www.w3.org/2000/svg">
  <defs/>
  <g fill="#4a6cf7">
    <path d="M 31.63 13.81 L 37.56 13.81 C 38.46666666666667 13.81 39.230000000000004 13.516666666666667 39.85 12.93 C 40.47666666666667 12.35 40.79 11.523333333333333 40.79 10.45 C 40.79 9.656666666666666 40.46333333333333 8.943333333333333 39.81 8.31 C 39.15 7.676666666666667 38.4 7.36 37.56 7.36 L 29.12 7.36 L 29.12 25.08 L 28.13 25.08 L 28.13 6.37 L 37.56 6.37 C 38.67333333333333 6.37 39.65333333333333 6.783333333333333 40.5 7.61 C 41.35333333333333 8.436666666666667 41.78 9.383333333333333 41.78 10.45 C 41.78 11.756666666666666 41.37 12.806666666666667 40.55 13.6 C 39.723333333333336 14.393333333333333 38.72666666666667 14.79 37.56 14.79 L 31.63 14.79 L 31.63 13.81 Z" style="fill: rgb(220, 56, 56);"/>
    <path d="M 67.55 13.84 C 68.35666666666667 12.753333333333334 68.76 11.58 68.76 10.32 C 68.76 9.093333333333334 68.43666666666667 7.946666666666667 67.79 6.88 C 67.13666666666667 5.82 66.25666666666667 4.98 65.15 4.36 C 64.05 3.7333333333333334 62.86666666666667 3.42 61.6 3.42 L 48.8 3.42 L 48.8 25.08 L 47.82 25.08 L 47.82 2.43 L 61.6 2.43 C 63.04 2.43 64.38666666666667 2.7866666666666666 65.64 3.5 C 66.89333333333333 4.213333333333334 67.89 5.176666666666667 68.63 6.39 C 69.37666666666667 7.61 69.75 8.92 69.75 10.32 C 69.75 11.66 69.37 12.836666666666666 68.61 13.85 C 69.37 14.896666666666667 69.75 15.963333333333333 69.75 17.05 C 69.75 18.27 69.53 19.39 69.09 20.41 C 68.65666666666667 21.423333333333332 68.06666666666666 22.266666666666666 67.32 22.94 C 66.58 23.613333333333333 65.71666666666667 24.136666666666667 64.73 24.51 C 63.74333333333333 24.89 62.7 25.08 61.6 25.08 L 55.26 25.08 L 55.26 24.09 L 61.6 24.09 C 62.56 24.09 63.47666666666667 23.91 64.35 23.55 C 65.22333333333333 23.19 65.98333333333333 22.7 66.63 22.08 C 67.27666666666666 21.459999999999997 67.79333333333334 20.71333333333333 68.18 19.84 C 68.56666666666668 18.96666666666667 68.76 18.03666666666667 68.76 17.05 C 68.76 16.61 68.66 16.083333333333336 68.46 15.47 C 68.25333333333333 14.856666666666667 67.95 14.313333333333334 67.55 13.84 Z" style="fill: rgb(220, 56, 56);"/>
    <path d="M 67.78 10.32 C 67.78 11.6 67.33 12.753333333333334 66.43 13.78 C 67.33 14.786666666666665 67.78 15.876666666666667 67.78 17.05 C 67.78 18.19 67.49333333333334 19.226666666666667 66.92 20.16 C 66.35333333333332 21.093333333333334 65.6 21.816666666666666 64.66 22.33 C 63.71333333333333 22.849999999999998 62.693333333333335 23.11 61.6 23.11 L 55.26 23.11 L 55.26 22.12 L 61.6 22.12 C 63.019999999999996 22.12 64.24 21.643333333333334 65.26 20.69 C 66.28666666666666 19.736666666666668 66.8 18.523333333333333 66.8 17.05 C 66.8 16.523333333333333 66.66333333333333 15.936666666666667 66.39 15.29 C 66.12333333333333 14.65 65.75333333333333 14.16 65.28 13.82 C 66.29333333333334 12.873333333333333 66.8 11.706666666666667 66.8 10.32 C 66.8 8.993333333333334 66.28 7.84 65.24 6.86 C 64.2 5.88 62.986666666666665 5.39 61.6 5.39 L 50.77 5.39 L 50.77 25.08 L 49.79 25.08 L 49.79 4.4 L 61.6 4.4 C 62.68666666666667 4.4 63.70666666666666 4.666666666666667 64.66 5.2 C 65.60666666666667 5.733333333333333 66.36333333333333 6.46 66.93 7.38 C 67.49666666666667 8.293333333333333 67.78 9.273333333333333 67.78 10.32 Z" style="fill: rgb(220, 56, 56);"/>
    <path d="M 55.26 13.43 L 61.6 13.43 C 62.5 13.43 63.263333333333335 13.156666666666666 63.89 12.61 C 64.51666666666667 12.07 64.83 11.306666666666667 64.83 10.32 C 64.83 9.526666666666667 64.50333333333333 8.833333333333334 63.85 8.24 C 63.196666666666665 7.653333333333333 62.446666666666665 7.36 61.6 7.36 L 52.74 7.36 L 52.74 25.08 L 51.76 25.08 L 51.76 6.37 L 61.6 6.37 C 62.72 6.37 63.70333333333333 6.763333333333334 64.55 7.55 C 65.39 8.343333333333334 65.81 9.266666666666667 65.81 10.32 C 65.81 11.153333333333334 65.61666666666667 11.88 65.23 12.5 C 64.84333333333333 13.12 64.32000000000001 13.596666666666666 63.66 13.93 C 65.09333333333333 14.443333333333333 65.81 15.483333333333333 65.81 17.05 C 65.81 18.29 65.4 19.28 64.58 20.02 C 63.76 20.766666666666666 62.766666666666666 21.14 61.6 21.14 L 55.26 21.14 L 55.26 20.15 L 61.6 20.15 C 62.5 20.15 63.263333333333335 19.88 63.89 19.34 C 64.51666666666667 18.8 64.83 18.03666666666667 64.83 17.05 C 64.83 16.383333333333333 64.59333333333333 15.796666666666667 64.12 15.29 C 63.64 14.776666666666666 62.94 14.48 62.02 14.4 C 61.93333333333334 14.406666666666666 61.79333333333334 14.41 61.6 14.41 L 55.26 14.41 L 55.26 13.43 Z" style="fill: rgb(220, 56, 56);"/>
    <path d="M 54.71 25.08 L 53.72 25.08 L 53.72 8.34 L 61.6 8.34 C 62.22 8.34 62.75 8.53 63.19 8.91 C 63.623333333333335 9.290000000000001 63.84 9.76 63.84 10.32 C 63.84 11.066666666666666 63.63666666666667 11.606666666666666 63.23 11.94 C 62.81666666666666 12.273333333333333 62.27333333333333 12.44 61.6 12.44 L 55.26 12.44 L 55.26 11.46 L 61.6 11.46 C 62.44 11.46 62.86 11.08 62.86 10.32 C 62.86 10.013333333333334 62.74 9.77 62.5 9.59 C 62.266666666666666 9.416666666666666 61.96666666666667 9.33 61.6 9.33 L 54.71 9.33 L 54.71 25.08 Z" style="fill: rgb(220, 56, 56);"/>
    <path d="M 62.86 17.19 C 62.86 16.83 62.75333333333333 16.593333333333334 62.54 16.48 C 62.32 16.36 62.00666666666667 16.3 61.6 16.3 L 55.26 16.3 L 55.26 15.31 L 61.6 15.31 C 63.093333333333334 15.31 63.84 15.936666666666667 63.84 17.19 C 63.84 17.89 63.63666666666667 18.39333333333333 63.23 18.7 C 62.81666666666666 19.013333333333335 62.27333333333333 19.17 61.6 19.17 L 55.26 19.17 L 55.26 18.18 L 61.6 18.18 C 62.44 18.18 62.86 17.85 62.86 17.19 Z" style="fill: rgb(220, 56, 56);"/>
    <path d="M 31.08 25.08 L 30.1 25.08 L 30.1 8.34 L 37.56 8.34 C 38.17333333333333 8.34 38.699999999999996 8.546666666666667 39.14 8.96 C 39.586666666666666 9.373333333333333 39.81 9.87 39.81 10.45 C 39.81 12.036666666666667 39.06 12.83 37.56 12.83 L 31.63 12.83 L 31.63 11.84 L 37.56 11.84 C 37.95333333333333 11.84 38.263333333333335 11.736666666666666 38.49 11.53 C 38.71 11.33 38.82 10.97 38.82 10.45 C 38.82 10.13 38.7 9.863333333333333 38.46 9.65 C 38.22 9.436666666666667 37.92 9.33 37.56 9.33 L 31.08 9.33 L 31.08 25.08 Z" style="fill: rgb(220, 56, 56);"/>
    <path d="M 31.63 17.75 L 37.56 17.75 C 38.839999999999996 17.75 40.026666666666664 17.433333333333334 41.12 16.8 C 42.21333333333333 16.173333333333332 43.086666666666666 15.296666666666667 43.74 14.17 C 44.4 13.043333333333333 44.73 11.803333333333333 44.73 10.45 C 44.73 9.216666666666667 44.40333333333333 8.06 43.75 6.98 C 43.09666666666667 5.9 42.22 5.036666666666667 41.12 4.39 C 40.013333333333335 3.743333333333333 38.82666666666667 3.42 37.56 3.42 L 25.18 3.42 L 25.18 25.08 L 24.19 25.08 L 24.19 2.43 L 37.56 2.43 C 38.99333333333333 2.43 40.34 2.796666666666667 41.6 3.5300000000000002 C 42.85333333333333 4.27 43.85333333333333 5.256666666666667 44.6 6.49 C 45.34 7.723333333333334 45.71 9.043333333333333 45.71 10.45 C 45.71 12.07 45.36333333333334 13.496666666666668 44.67 14.73 C 43.97 15.956666666666667 43.02333333333333 16.916666666666668 41.83 17.61 L 44.37 25.08 L 43.33 25.08 L 40.9 18.08 C 40.53333333333333 18.22 40.25666666666667 18.32 40.07 18.38 L 42.35 25.08 L 41.31 25.08 L 39.08 18.61 C 39 18.63 38.71 18.66 38.21 18.7 L 40.33 25.08 L 39.29 25.08 L 37.2 18.73 L 36.31 18.73 L 38.3 25.08 L 37.26 25.08 L 35.25 18.73 L 31.63 18.73 L 31.63 17.75 Z" style="fill: rgb(220, 56, 56);"/>
    <path d="M 31.63 15.78 L 37.56 15.78 C 38.98666666666667 15.78 40.21 15.28 41.23 14.28 C 42.25 13.28 42.76 12.003333333333332 42.76 10.45 C 42.76 9.11 42.236666666666665 7.93 41.19 6.91 C 40.15 5.8966666666666665 38.940000000000005 5.39 37.56 5.39 L 27.15 5.39 L 27.15 25.08 L 26.16 25.08 L 26.16 4.4 L 37.56 4.4 C 38.64666666666667 4.4 39.666666666666664 4.680000000000001 40.62 5.24 C 41.57333333333333 5.793333333333334 42.33333333333333 6.536666666666667 42.9 7.47 C 43.46 8.403333333333334 43.74 9.396666666666667 43.74 10.45 C 43.74 12.243333333333334 43.13333333333333 13.743333333333334 41.92 14.95 C 40.7 16.156666666666666 39.24666666666667 16.76 37.56 16.76 L 31.63 16.76 L 31.63 15.78 Z" style="fill: rgb(220, 56, 56);"/>
  </g>
</svg>