<svg width="137" height="137" viewBox="0 0 137 137" fill="none" xmlns="http://www.w3.org/2000/svg">
<g clip-path="url(#clip0_437_160)">
<path d="M80.9737 104.744C80.5423 104.491 80.1971 104.289 79.9025 104.001C78.7401 97.8732 78.2976 91.7036 78.8486 85.4205C79.1062 82.2106 74.1619 81.7484 73.9043 84.9583C73.5283 89.9531 73.6491 94.8913 74.1804 99.7222C51.9217 80.5428 53.0817 47.498 63.5435 21.524C64.7294 18.5101 60.0464 16.8102 58.9111 19.7378C48.1312 46.4527 47.2362 80.2321 68.139 100.935C62.4057 98.8519 56.4913 97.4738 50.3956 96.8007C48.8843 96.6109 47.3915 98.1702 47.7342 99.7616C48.3986 102.585 49.476 103.911 52.0795 105.204C54.0283 106.23 55.4496 104.397 55.208 102.633C62.5117 104.013 69.5183 106.495 76.091 110.113C76.1625 110.386 76.234 110.66 76.3561 110.847C77.2288 113.908 82.1251 113.067 81.2523 110.007L81.2166 109.87C81.5198 109.352 81.6505 108.733 81.5075 108.186C82.3013 107.028 82.3543 105.553 80.9737 104.744Z" fill="#B20000"/>
</g>
<defs>
<clipPath id="clip0_437_160">
<rect width="100" height="100" fill="white" transform="translate(50.5391) rotate(30.3582)"/>
</clipPath>
</defs>
</svg>
