<svg width="644" height="125" viewBox="0 0 644 125" fill="none" xmlns="http://www.w3.org/2000/svg">
<g filter="url(#filter0_d_957_3710)">
<path d="M91.9318 60.2727C91.9318 69.1553 90.2481 76.7121 86.8807 82.9432C83.5398 89.1742 78.9792 93.9337 73.1989 97.2216C67.4451 100.483 60.9754 102.114 53.7898 102.114C46.5511 102.114 40.0549 100.47 34.3011 97.1818C28.5473 93.8939 24 89.1345 20.6591 82.9034C17.3182 76.6723 15.6477 69.1288 15.6477 60.2727C15.6477 51.3902 17.3182 43.8333 20.6591 37.6023C24 31.3712 28.5473 26.625 34.3011 23.3636C40.0549 20.0758 46.5511 18.4318 53.7898 18.4318C60.9754 18.4318 67.4451 20.0758 73.1989 23.3636C78.9792 26.625 83.5398 31.3712 86.8807 37.6023C90.2481 43.8333 91.9318 51.3902 91.9318 60.2727ZM74.4716 60.2727C74.4716 54.5189 73.6099 49.6667 71.8864 45.7159C70.1894 41.7652 67.7898 38.7689 64.6875 36.7273C61.5852 34.6856 57.9527 33.6648 53.7898 33.6648C49.6269 33.6648 45.9943 34.6856 42.892 36.7273C39.7898 38.7689 37.3769 41.7652 35.6534 45.7159C33.9564 49.6667 33.108 54.5189 33.108 60.2727C33.108 66.0265 33.9564 70.8788 35.6534 74.8295C37.3769 78.7803 39.7898 81.7765 42.892 83.8182C45.9943 85.8598 49.6269 86.8807 53.7898 86.8807C57.9527 86.8807 61.5852 85.8598 64.6875 83.8182C67.7898 81.7765 70.1894 78.7803 71.8864 74.8295C73.6099 70.8788 74.4716 66.0265 74.4716 60.2727ZM143.547 74.9886V39.9091H160.49V101H144.223V89.9034H143.587C142.208 93.483 139.914 96.3598 136.706 98.5341C133.524 100.708 129.64 101.795 125.053 101.795C120.969 101.795 117.376 100.867 114.274 99.0114C111.172 97.1553 108.746 94.517 106.996 91.0966C105.272 87.6761 104.397 83.5795 104.371 78.8068V39.9091H121.314V75.7841C121.34 79.3902 122.308 82.2405 124.217 84.3352C126.126 86.4299 128.685 87.4773 131.893 87.4773C133.935 87.4773 135.844 87.0133 137.621 86.0852C139.397 85.1307 140.829 83.7254 141.916 81.8693C143.03 80.0133 143.573 77.7197 143.547 74.9886ZM174.043 101V39.9091H190.469V50.5682H191.105C192.219 46.7765 194.088 43.9129 196.713 41.9773C199.338 40.0152 202.361 39.0341 205.781 39.0341C206.63 39.0341 207.545 39.0871 208.526 39.1932C209.507 39.2992 210.368 39.4451 211.111 39.6307V54.6648C210.315 54.4261 209.215 54.214 207.81 54.0284C206.404 53.8428 205.118 53.75 203.952 53.75C201.459 53.75 199.232 54.2936 197.27 55.3807C195.334 56.4413 193.796 57.9261 192.656 59.8352C191.543 61.7443 190.986 63.9451 190.986 66.4375V101H174.043ZM317.98 48.0625H300.56C300.241 45.8087 299.592 43.8068 298.611 42.0568C297.63 40.2803 296.37 38.7689 294.832 37.5227C293.295 36.2765 291.518 35.322 289.503 34.6591C287.514 33.9962 285.353 33.6648 283.02 33.6648C278.804 33.6648 275.132 34.7121 272.003 36.8068C268.874 38.875 266.448 41.8977 264.724 45.875C263.001 49.8258 262.139 54.625 262.139 60.2727C262.139 66.0795 263.001 70.9583 264.724 74.9091C266.474 78.8598 268.914 81.8428 272.043 83.858C275.171 85.8731 278.791 86.8807 282.901 86.8807C285.207 86.8807 287.342 86.5758 289.304 85.9659C291.293 85.3561 293.056 84.4678 294.594 83.3011C296.132 82.108 297.404 80.6629 298.412 78.9659C299.446 77.2689 300.162 75.3333 300.56 73.1591L317.98 73.2386C317.529 76.9773 316.402 80.5833 314.599 84.0568C312.823 87.5038 310.423 90.5928 307.401 93.3239C304.404 96.0284 300.825 98.1761 296.662 99.767C292.526 101.331 287.846 102.114 282.622 102.114C275.357 102.114 268.861 100.47 263.134 97.1818C257.433 93.8939 252.925 89.1345 249.611 82.9034C246.323 76.6723 244.679 69.1288 244.679 60.2727C244.679 51.3902 246.349 43.8333 249.69 37.6023C253.031 31.3712 257.565 26.625 263.293 23.3636C269.02 20.0758 275.463 18.4318 282.622 18.4318C287.342 18.4318 291.717 19.0947 295.747 20.4205C299.804 21.7462 303.397 23.6818 306.526 26.2273C309.654 28.7462 312.2 31.8352 314.162 35.4943C316.151 39.1534 317.423 43.3428 317.98 48.0625ZM346.955 19.5455V101H330.011V19.5455H346.955ZM360.527 101V39.9091H377.47V101H360.527ZM369.038 32.0341C366.519 32.0341 364.358 31.1989 362.555 29.5284C360.779 27.8314 359.891 25.803 359.891 23.4432C359.891 21.1098 360.779 19.108 362.555 17.4375C364.358 15.7405 366.519 14.892 369.038 14.892C371.557 14.892 373.705 15.7405 375.482 17.4375C377.285 19.108 378.186 21.1098 378.186 23.4432C378.186 25.803 377.285 27.8314 375.482 29.5284C373.705 31.1989 371.557 32.0341 369.038 32.0341ZM418.884 102.193C412.599 102.193 407.19 100.92 402.656 98.375C398.149 95.803 394.675 92.1705 392.236 87.4773C389.796 82.7576 388.577 77.1761 388.577 70.733C388.577 64.4489 389.796 58.9337 392.236 54.1875C394.675 49.4413 398.109 45.7424 402.537 43.0909C406.991 40.4394 412.215 39.1136 418.207 39.1136C422.238 39.1136 425.99 39.7633 429.463 41.0625C432.963 42.3352 436.012 44.2576 438.611 46.8295C441.236 49.4015 443.277 52.6364 444.736 56.5341C446.194 60.4053 446.923 64.9394 446.923 70.1364V74.7898H395.338V64.2898H430.974C430.974 61.8504 430.444 59.6894 429.384 57.8068C428.323 55.9242 426.851 54.4526 424.969 53.392C423.113 52.3049 420.952 51.7614 418.486 51.7614C415.914 51.7614 413.634 52.358 411.645 53.5511C409.683 54.7178 408.145 56.2955 407.031 58.2841C405.918 60.2462 405.348 62.4337 405.321 64.8466V74.8295C405.321 77.8523 405.878 80.464 406.991 82.6648C408.132 84.8655 409.736 86.5625 411.804 87.7557C413.872 88.9489 416.325 89.5455 419.162 89.5455C421.045 89.5455 422.768 89.2803 424.332 88.75C425.897 88.2197 427.236 87.4242 428.349 86.3636C429.463 85.303 430.312 84.0038 430.895 82.4659L446.565 83.5C445.77 87.2652 444.139 90.553 441.673 93.3636C439.234 96.1477 436.079 98.322 432.207 99.8864C428.363 101.424 423.921 102.193 418.884 102.193ZM474.923 65.6818V101H457.98V39.9091H474.128V50.6875H474.844C476.196 47.1345 478.463 44.3239 481.645 42.2557C484.827 40.161 488.685 39.1136 493.219 39.1136C497.461 39.1136 501.16 40.0417 504.315 41.8977C507.471 43.7538 509.923 46.4053 511.673 49.8523C513.423 53.2727 514.298 57.3561 514.298 62.1023V101H497.355V65.125C497.382 61.3864 496.427 58.4697 494.491 56.375C492.556 54.2538 489.891 53.1932 486.497 53.1932C484.217 53.1932 482.202 53.6837 480.452 54.6648C478.728 55.6458 477.376 57.0777 476.395 58.9602C475.44 60.8163 474.95 63.0568 474.923 65.6818ZM560.146 39.9091V52.6364H523.357V39.9091H560.146ZM531.709 25.2727H548.652V82.2273C548.652 83.7917 548.891 85.0114 549.368 85.8864C549.845 86.7348 550.508 87.3314 551.357 87.6761C552.232 88.0208 553.239 88.1932 554.379 88.1932C555.175 88.1932 555.97 88.1269 556.766 87.9943C557.561 87.8352 558.171 87.7159 558.595 87.6364L561.26 100.244C560.411 100.509 559.218 100.814 557.68 101.159C556.143 101.53 554.273 101.756 552.072 101.835C547.989 101.994 544.41 101.451 541.334 100.205C538.285 98.9583 535.911 97.0227 534.214 94.3977C532.518 91.7727 531.682 88.4583 531.709 84.4545V25.2727ZM621.247 57.3295L605.736 58.2841C605.471 56.9583 604.901 55.7651 604.026 54.7045C603.151 53.6174 601.997 52.7557 600.565 52.1193C599.16 51.4564 597.476 51.125 595.514 51.125C592.889 51.125 590.675 51.6818 588.872 52.7955C587.069 53.8826 586.168 55.3409 586.168 57.1705C586.168 58.6288 586.751 59.8617 587.918 60.8693C589.084 61.8769 591.086 62.6856 593.923 63.2955L604.98 65.5227C610.92 66.7424 615.348 68.7045 618.264 71.4091C621.181 74.1136 622.639 77.6667 622.639 82.0682C622.639 86.072 621.459 89.5852 619.099 92.608C616.766 95.6307 613.558 97.9905 609.474 99.6875C605.418 101.358 600.738 102.193 595.435 102.193C587.348 102.193 580.904 100.509 576.105 97.142C571.332 93.7481 568.535 89.1345 567.713 83.3011L584.378 82.4261C584.882 84.892 586.101 86.7746 588.037 88.0739C589.973 89.3466 592.452 89.983 595.474 89.983C598.444 89.983 600.83 89.4129 602.634 88.2727C604.463 87.1061 605.391 85.608 605.418 83.7784C605.391 82.2405 604.741 80.9811 603.469 80C602.196 78.9924 600.234 78.2235 597.582 77.6932L587.003 75.5852C581.037 74.392 576.596 72.3239 573.679 69.3807C570.789 66.4375 569.344 62.6856 569.344 58.125C569.344 54.2008 570.404 50.8201 572.526 47.983C574.673 45.1458 577.683 42.9583 581.554 41.4205C585.452 39.8826 590.012 39.1136 595.236 39.1136C602.952 39.1136 609.024 40.7443 613.452 44.0057C617.906 47.267 620.505 51.7083 621.247 57.3295Z" fill="white"/>
</g>
<defs>
<filter id="filter0_d_957_3710" x="0.648438" y="0.89209" width="642.99" height="123.301" filterUnits="userSpaceOnUse" color-interpolation-filters="sRGB">
<feFlood flood-opacity="0" result="BackgroundImageFix"/>
<feColorMatrix in="SourceAlpha" type="matrix" values="0 0 0 0 0 0 0 0 0 0 0 0 0 0 0 0 0 0 127 0" result="hardAlpha"/>
<feOffset dx="3" dy="4"/>
<feGaussianBlur stdDeviation="9"/>
<feComposite in2="hardAlpha" operator="out"/>
<feColorMatrix type="matrix" values="0 0 0 0 0 0 0 0 0 0 0 0 0 0 0 0 0 0 0.09 0"/>
<feBlend mode="normal" in2="BackgroundImageFix" result="effect1_dropShadow_957_3710"/>
<feBlend mode="normal" in="SourceGraphic" in2="effect1_dropShadow_957_3710" result="shape"/>
</filter>
</defs>
</svg>
